<svg width="28" height="28" viewBox="0 0 28 28" fill="none" xmlns="http://www.w3.org/2000/svg">
<g id="add_circle">
<mask id="mask0_476_1621" style="mask-type:alpha" maskUnits="userSpaceOnUse" x="0" y="0" width="28" height="28">
<rect id="Bounding box" width="28" height="28" fill="#D9D9D9"/>
</mask>
<g mask="url(#mask0_476_1621)">
<path id="add_circle_2" d="M13.125 19.5417H14.875V14.875H19.5416V13.1251H14.875V8.45842H13.125V13.1251H8.45836V14.875H13.125V19.5417ZM14.002 25.0834C12.469 25.0834 11.0282 24.7925 9.67934 24.2107C8.33049 23.6289 7.1572 22.8394 6.15944 21.8421C5.16167 20.8447 4.37177 19.672 3.78974 18.3237C3.20771 16.9755 2.91669 15.5349 2.91669 14.002C2.91669 12.4691 3.20758 11.0282 3.78936 9.67939C4.37114 8.33055 5.16068 7.15725 6.15799 6.1595C7.15531 5.16173 8.32809 4.37183 9.67633 3.7898C11.0246 3.20776 12.4651 2.91675 13.998 2.91675C15.531 2.91675 16.9718 3.20764 18.3207 3.78942C19.6695 4.37119 20.8428 5.16073 21.8406 6.15804C22.8383 7.15537 23.6282 8.32815 24.2103 9.67639C24.7923 11.0246 25.0833 12.4652 25.0833 13.9981C25.0833 15.531 24.7924 16.9719 24.2106 18.3207C23.6289 19.6696 22.8393 20.8429 21.842 21.8406C20.8447 22.8384 19.6719 23.6283 18.3237 24.2103C16.9754 24.7923 15.5349 25.0834 14.002 25.0834ZM14 23.3334C16.6056 23.3334 18.8125 22.4292 20.6208 20.6209C22.4292 18.8126 23.3333 16.6056 23.3333 14.0001C23.3333 11.3945 22.4292 9.18755 20.6208 7.37922C18.8125 5.57089 16.6056 4.66672 14 4.66672C11.3944 4.66672 9.1875 5.57089 7.37917 7.37922C5.57083 9.18755 4.66667 11.3945 4.66667 14.0001C4.66667 16.6056 5.57083 18.8126 7.37917 20.6209C9.1875 22.4292 11.3944 23.3334 14 23.3334Z" fill="#8B8B8B"/>
</g>
</g>
</svg>
