<svg width="28" height="26" viewBox="0 0 28 26" fill="none" xmlns="http://www.w3.org/2000/svg">
<g id="lock">
<mask id="mask0_44_1504" style="mask-type:alpha" maskUnits="userSpaceOnUse" x="0" y="0" width="28" height="26">
<rect id="Bounding box" width="28" height="26" fill="#D9D9D9"/>
</mask>
<g mask="url(#mask0_44_1504)">
<path id="lock_2" d="M6.99996 23.8335C6.35829 23.8335 5.80899 23.6213 5.35204 23.197C4.8951 22.7727 4.66663 22.2627 4.66663 21.6668V10.8335C4.66663 10.2377 4.8951 9.72759 5.35204 9.30329C5.80899 8.87898 6.35829 8.66683 6.99996 8.66683H8.16663V6.50016C8.16663 5.00155 8.73538 3.72412 9.87288 2.66787C11.0104 1.61162 12.3861 1.0835 14 1.0835C15.6138 1.0835 16.9895 1.61162 18.127 2.66787C19.2645 3.72412 19.8333 5.00155 19.8333 6.50016V8.66683H21C21.6416 8.66683 22.1909 8.87898 22.6479 9.30329C23.1048 9.72759 23.3333 10.2377 23.3333 10.8335V21.6668C23.3333 22.2627 23.1048 22.7727 22.6479 23.197C22.1909 23.6213 21.6416 23.8335 21 23.8335H6.99996ZM14 18.4168C14.6416 18.4168 15.1909 18.2047 15.6479 17.7804C16.1048 17.3561 16.3333 16.846 16.3333 16.2502C16.3333 15.6543 16.1048 15.1443 15.6479 14.72C15.1909 14.2956 14.6416 14.0835 14 14.0835C13.3583 14.0835 12.809 14.2956 12.352 14.72C11.8951 15.1443 11.6666 15.6543 11.6666 16.2502C11.6666 16.846 11.8951 17.3561 12.352 17.7804C12.809 18.2047 13.3583 18.4168 14 18.4168ZM10.5 8.66683H17.5V6.50016C17.5 5.59739 17.1597 4.83002 16.4791 4.19808C15.7986 3.56613 14.9722 3.25016 14 3.25016C13.0277 3.25016 12.2013 3.56613 11.5208 4.19808C10.8402 4.83002 10.5 5.59739 10.5 6.50016V8.66683Z" fill="#7B61FF"/>
</g>
</g>
</svg>
