<svg width="31" height="28" viewBox="0 0 31 28" fill="none" xmlns="http://www.w3.org/2000/svg">
<g id="person">
<mask id="mask0_44_1507" style="mask-type:alpha" maskUnits="userSpaceOnUse" x="0" y="0" width="31" height="28">
<rect id="Bounding box" width="30.1538" height="28" fill="#D9D9D9"/>
</mask>
<g mask="url(#mask0_44_1507)">
<path id="person_2" d="M15.0769 13.9998C13.6949 13.9998 12.5117 13.5429 11.5276 12.629C10.5434 11.7151 10.0513 10.6165 10.0513 9.33317C10.0513 8.04984 10.5434 6.95123 11.5276 6.03734C12.5117 5.12345 13.6949 4.6665 15.0769 4.6665C16.459 4.6665 17.6421 5.12345 18.6263 6.03734C19.6105 6.95123 20.1026 8.04984 20.1026 9.33317C20.1026 10.6165 19.6105 11.7151 18.6263 12.629C17.6421 13.5429 16.459 13.9998 15.0769 13.9998ZM5.02563 23.3332V20.0665C5.02563 19.4054 5.20886 18.7978 5.57531 18.2436C5.94177 17.6894 6.42863 17.2665 7.03589 16.9748C8.33418 16.3721 9.65341 15.92 10.9936 15.6186C12.3338 15.3172 13.6949 15.1665 15.0769 15.1665C16.459 15.1665 17.8201 15.3172 19.1603 15.6186C20.5004 15.92 21.8197 16.3721 23.1179 16.9748C23.7252 17.2665 24.2121 17.6894 24.5785 18.2436C24.945 18.7978 25.1282 19.4054 25.1282 20.0665V23.3332H5.02563Z" fill="#7B61FF"/>
</g>
</g>
</svg>
